<?xml version="1.0" standalone="no"?>
<!DOCTYPE svg PUBLIC "-//W3C//DTD SVG 20010904//EN"
 "http://www.w3.org/TR/2001/REC-SVG-20010904/DTD/svg10.dtd">
<svg version="1.0" xmlns="http://www.w3.org/2000/svg"
 width="1000.000000pt" height="1000.000000pt" viewBox="0 0 1000.000000 1000.000000"
 preserveAspectRatio="xMidYMid meet">
<metadata>
Created by potrace 1.14, written by Peter Selinger 2001-2017
</metadata>
<g transform="translate(0.000000,1000.000000) scale(0.100000,-0.100000)"
fill="#000000" stroke="none">
<path d="M0 5000 l0 -5000 5000 0 5000 0 0 5000 0 5000 -5000 0 -5000 0 0
-5000z m4251 1074 c102 -29 188 -104 242 -209 39 -78 56 -146 178 -687 62
-279 114 -506 116 -504 2 1 59 302 128 667 69 365 128 674 130 687 l5 22 275
0 c216 0 275 -3 275 -13 0 -32 -363 -1719 -381 -1772 -88 -254 -352 -363 -599
-247 -70 33 -160 123 -195 197 -18 39 -68 238 -155 622 -71 311 -130 567 -132
569 -2 2 -61 -250 -131 -559 -140 -617 -151 -650 -238 -742 -184 -195 -513
-172 -658 45 -21 33 -47 82 -56 109 -27 81 -384 1775 -376 1784 4 4 129 6 277
5 l269 -3 130 -687 c71 -378 131 -685 133 -684 1 2 54 232 117 511 136 601
128 571 170 662 55 120 153 206 262 232 61 14 155 12 214 -5z m2177 -786 l2
-758 445 0 445 0 0 -255 0 -255 -527 0 c-571 0 -611 3 -711 54 -91 46 -153
127 -190 249 -14 45 -16 159 -19 876 -2 453 -2 830 1 838 5 11 57 13 278 11
l273 -3 3 -757z"/>
</g>
</svg>
